<svg xmlns="http://www.w3.org/2000/svg" viewBox="0 0 24 24">
  <rect width="24" height="24" rx="3" fill="#f7df1e" />
  <path d="M18.15 19c-.4 0-.75-.17-.98-.44-.24-.27-.37-.68-.37-1.18h1.4c0 .32.06.5.15.58.1.1.25.13.43.13.25 0 .42-.1.52-.28.1-.18.14-.52.14-1v-4.9h1.43v4.94c0 1-.22 1.68-.68 2.06-.45.38-1.07.57-1.84.57zm-5.45-.03c-.65 0-1.16-.18-1.52-.54-.36-.36-.56-.93-.56-1.7h1.4c0 .46.12.78.34.93.22.15.54.23.96.23.36 0 .62-.07.78-.22.15-.15.23-.37.23-.65 0-.25-.07-.44-.2-.55-.14-.1-.4-.2-.8-.27l-.95-.17c-.77-.14-1.3-.4-1.62-.83-.3-.42-.46-.98-.46-1.67 0-.7.22-1.25.68-1.64.45-.4 1.1-.6 1.9-.6.7 0 1.25.17 1.63.53.37.35.58.85.6 1.5h-1.37c-.02-.32-.1-.54-.25-.66-.15-.12-.4-.18-.75-.18-.32 0-.55.06-.7.18-.14.12-.22.28-.22.5 0 .2.08.35.25.45.17.1.48.2.9.27l.87.16c.86.15 1.45.45 1.78.9.33.45.5 1.05.5 1.8 0 .74-.23 1.34-.7 1.77-.47.43-1.15.65-2.02.65z" fill="#000000" />
</svg>
